<svg width="32" height="32" viewBox="0 0 32 32" fill="none" xmlns="http://www.w3.org/2000/svg">
<path d="M26.1005 27H5.90049C5.65443 26.9988 5.41721 26.9081 5.23317 26.7448C5.04913 26.5815 4.93087 26.3567 4.90049 26.1125L3.12549 10.1125C3.1097 9.97309 3.12343 9.83192 3.16577 9.69817C3.20812 9.56441 3.27813 9.44106 3.37127 9.33614C3.4644 9.23121 3.57858 9.14706 3.70636 9.08915C3.83415 9.03124 3.9727 9.00086 4.11299 9H27.888C28.0283 9.00086 28.1668 9.03124 28.2946 9.08915C28.4224 9.14706 28.5366 9.23121 28.6297 9.33614C28.7228 9.44106 28.7929 9.56441 28.8352 9.69817C28.8776 9.83192 28.8913 9.97309 28.8755 10.1125L27.1005 26.1125C27.0701 26.3567 26.9519 26.5815 26.7678 26.7448C26.5838 26.9081 26.3466 26.9988 26.1005 27V27Z" stroke="#2B2929" stroke-width="1.5" stroke-linecap="round" stroke-linejoin="round"/>
<path d="M11 9C11 7.67392 11.5268 6.40215 12.4645 5.46447C13.4021 4.52678 14.6739 4 16 4C17.3261 4 18.5979 4.52678 19.5355 5.46447C20.4732 6.40215 21 7.67392 21 9" stroke="#2B2929" stroke-width="1.5" stroke-linecap="round" stroke-linejoin="round"/>
</svg>
