<svg width="32.000000" height="32.000000" viewBox="0 0 32 32" fill="none" xmlns="http://www.w3.org/2000/svg" xmlns:xlink="http://www.w3.org/1999/xlink">
	<desc>
			Created with Pixso.
	</desc>
	<defs/>
	<circle id="Ellipse 4" cx="16.000000" cy="16.000000" r="15.500000" stroke="#464646" stroke-opacity="1.000000" stroke-width="1.000000"/>
	<path id="Vector" d="M24.0029 12.1652C24.0029 17.2586 17.2495 24.0054 12.1626 24.0054C11.0493 24.0054 10.0093 23.5854 9.24268 22.8187L8.57593 22.052C7.80249 21.2787 7.80249 19.972 8.60913 19.1653C8.62915 19.1453 10.2358 17.912 10.2358 17.912C10.6208 17.5461 11.1316 17.342 11.6626 17.342C12.1936 17.342 12.7043 17.5461 13.0894 17.912L14.0627 18.692C16.196 17.7853 17.7095 16.2653 18.6829 14.0585L17.9094 13.0852C17.5405 12.7019 17.3345 12.1905 17.3345 11.6585C17.3345 11.1264 17.5405 10.6151 17.9094 10.2318C17.9094 10.2318 19.1428 8.62508 19.1628 8.60508C19.3545 8.41325 19.582 8.26108 19.8325 8.15726C20.0833 8.05344 20.3516 8 20.6228 8C20.894 8 21.1626 8.05344 21.4131 8.15726C21.6636 8.26108 21.8911 8.41325 22.083 8.60508L22.783 9.21176C23.1729 9.59641 23.4819 10.0554 23.6914 10.5615C23.9009 11.0677 24.0068 11.6107 24.0029 12.1585L24.0029 12.1652Z" fill="#464646" fill-opacity="1.000000" fill-rule="nonzero"/>
</svg>
