<svg width="17" height="15" viewBox="0 0 17 15" fill="none" xmlns="http://www.w3.org/2000/svg">
<path d="M12.1458 4.79312C12.6569 4.27295 13.1644 3.05922 11.0346 4.53303C9.04502 5.92644 7.04198 7.29981 5.02574 8.65293C4.71872 8.79421 4.3868 8.87088 4.04992 8.87833C3.71305 8.88578 3.37817 8.82385 3.0654 8.69627C1.78752 8.30615 0.295727 7.78598 0.295727 7.78598C0.295727 7.78598 -0.722875 7.13482 1.02079 6.44126C1.02079 6.44126 8.39269 3.36265 10.9494 2.27802C11.9291 1.84454 15.2525 0.457425 15.2525 0.457425C15.2525 0.457425 16.7869 -0.150382 16.6591 1.32437C16.6165 1.93124 16.2757 4.05715 15.935 6.35457C15.4229 9.60657 14.8691 13.163 14.8691 13.163C14.8691 13.163 14.784 14.1599 14.0598 14.3333C13.2846 14.32 12.5357 14.0456 11.93 13.5531C11.7596 13.423 8.73438 11.4715 7.62596 10.5178C7.51321 10.4401 7.4216 10.3346 7.35967 10.2112C7.29774 10.0877 7.2675 9.95037 7.27175 9.81185C7.276 9.67333 7.31461 9.53815 7.38399 9.41889C7.45336 9.29963 7.55126 9.20017 7.66855 9.12975C9.18882 7.71429 10.6815 6.26846 12.1458 4.79312Z" fill="#464646"/>
</svg>
