<svg width="17" height="19" viewBox="0 0 17 19" fill="none" xmlns="http://www.w3.org/2000/svg">
<path d="M8.57401 0.333332C4.10062 0.333332 0.477742 4.08708 0.477742 8.72208C0.477742 10.5896 1.06768 12.3146 2.06297 13.7096L0 18.3333L0.539269 18.0746L4.69417 16.0871C5.8451 16.7396 7.16612 17.1108 8.57039 17.1108C13.0402 17.1108 16.6667 13.3571 16.6667 8.72208C16.6703 4.08708 13.0438 0.333332 8.57401 0.333332ZM12.8918 12.3033C12.8447 12.5358 12.747 12.7571 12.6059 12.9521C12.4321 13.1921 12.2077 13.3721 11.9508 13.4846C11.6938 13.5971 11.4115 13.6421 11.1292 13.6046C10.3728 13.5108 9.64169 13.2596 8.98661 12.8546C8.23018 12.3896 7.21317 11.6658 6.44589 10.6308C5.62794 9.63708 5.18277 8.47458 4.90047 7.60833C4.65798 6.86208 4.57112 6.06708 4.63988 5.28333C4.66522 4.98708 4.76656 4.70958 4.92581 4.47333C5.08505 4.23708 5.30583 4.04583 5.56641 3.92208C5.77995 3.81708 6.01158 3.76833 6.23959 3.76833C6.56533 3.76833 6.96344 3.76458 7.23851 3.96708C7.66558 4.27833 7.84654 4.89333 7.84654 5.43333C7.84654 5.48208 7.84292 5.53458 7.8393 5.58333C7.81397 5.87958 7.78863 6.13833 7.62577 6.37458C7.46652 6.61083 7.17336 6.81708 6.91278 6.94458C7.11183 8.05458 7.45566 8.87958 7.92979 9.41208C8.13246 9.70458 8.40753 9.98208 8.7586 10.2408C9.10966 10.4996 9.53311 10.7358 10.0362 10.9533C10.2099 10.7171 10.4669 10.4621 10.7238 10.3496C10.9772 10.2371 11.2305 10.2633 11.5128 10.3008C11.5599 10.3083 11.6106 10.3158 11.6576 10.3271C12.1643 10.4396 12.7072 10.7508 12.9135 11.2496C13.0438 11.5721 12.9605 11.9733 12.8918 12.3033Z" fill="#464646"/>
</svg>
